<mxfile host="app.diagrams.net" agent="Mozilla/5.0 (Macintosh; Intel Mac OS X 10.15; rv:130.0) Gecko/20100101 Firefox/130.0" version="24.7.17">
  <diagram name="Страница — 1" id="_k6UZMLU4uGqVWALuKZs">
    <mxGraphModel dx="1363" dy="783" grid="1" gridSize="10" guides="1" tooltips="1" connect="1" arrows="1" fold="1" page="1" pageScale="1" pageWidth="827" pageHeight="1169" math="0" shadow="0">
      <root>
        <mxCell id="0" />
        <mxCell id="1" parent="0" />
        <mxCell id="_Ljdj8ycVx66a69qLUhx-50" style="edgeStyle=orthogonalEdgeStyle;rounded=0;orthogonalLoop=1;jettySize=auto;html=1;entryX=0;entryY=0.5;entryDx=0;entryDy=0;" edge="1" parent="1" source="_Ljdj8ycVx66a69qLUhx-1" target="_Ljdj8ycVx66a69qLUhx-2">
          <mxGeometry relative="1" as="geometry" />
        </mxCell>
        <mxCell id="_Ljdj8ycVx66a69qLUhx-1" value="Аналіз предметної області" style="rounded=1;whiteSpace=wrap;html=1;" vertex="1" parent="1">
          <mxGeometry x="10" y="20" width="150" height="50" as="geometry" />
        </mxCell>
        <mxCell id="_Ljdj8ycVx66a69qLUhx-5" value="" style="edgeStyle=orthogonalEdgeStyle;rounded=0;orthogonalLoop=1;jettySize=auto;html=1;" edge="1" parent="1" source="_Ljdj8ycVx66a69qLUhx-2" target="_Ljdj8ycVx66a69qLUhx-4">
          <mxGeometry relative="1" as="geometry" />
        </mxCell>
        <mxCell id="_Ljdj8ycVx66a69qLUhx-2" value="&lt;div&gt;Визначення цілей та задач&lt;/div&gt;" style="whiteSpace=wrap;html=1;rounded=1;" vertex="1" parent="1">
          <mxGeometry x="110" y="90" width="150" height="50" as="geometry" />
        </mxCell>
        <mxCell id="_Ljdj8ycVx66a69qLUhx-7" value="" style="edgeStyle=orthogonalEdgeStyle;rounded=0;orthogonalLoop=1;jettySize=auto;html=1;" edge="1" parent="1" source="_Ljdj8ycVx66a69qLUhx-4" target="_Ljdj8ycVx66a69qLUhx-6">
          <mxGeometry relative="1" as="geometry" />
        </mxCell>
        <mxCell id="_Ljdj8ycVx66a69qLUhx-4" value="&lt;div&gt;Дослідження ринку та конкурентів&lt;/div&gt;" style="whiteSpace=wrap;html=1;rounded=1;" vertex="1" parent="1">
          <mxGeometry x="110" y="160" width="150" height="50" as="geometry" />
        </mxCell>
        <mxCell id="_Ljdj8ycVx66a69qLUhx-9" value="" style="edgeStyle=orthogonalEdgeStyle;rounded=0;orthogonalLoop=1;jettySize=auto;html=1;" edge="1" parent="1" source="_Ljdj8ycVx66a69qLUhx-6" target="_Ljdj8ycVx66a69qLUhx-8">
          <mxGeometry relative="1" as="geometry" />
        </mxCell>
        <mxCell id="_Ljdj8ycVx66a69qLUhx-6" value="&lt;div&gt;Визначення цільової аудітроії&lt;br&gt;&lt;/div&gt;" style="whiteSpace=wrap;html=1;rounded=1;" vertex="1" parent="1">
          <mxGeometry x="110" y="230" width="150" height="50" as="geometry" />
        </mxCell>
        <mxCell id="_Ljdj8ycVx66a69qLUhx-11" value="" style="edgeStyle=orthogonalEdgeStyle;rounded=0;orthogonalLoop=1;jettySize=auto;html=1;" edge="1" parent="1" source="_Ljdj8ycVx66a69qLUhx-8" target="_Ljdj8ycVx66a69qLUhx-10">
          <mxGeometry relative="1" as="geometry" />
        </mxCell>
        <mxCell id="_Ljdj8ycVx66a69qLUhx-8" value="Попередній аналіз витрат" style="whiteSpace=wrap;html=1;rounded=1;" vertex="1" parent="1">
          <mxGeometry x="110" y="300" width="150" height="40" as="geometry" />
        </mxCell>
        <mxCell id="_Ljdj8ycVx66a69qLUhx-48" style="edgeStyle=orthogonalEdgeStyle;rounded=0;orthogonalLoop=1;jettySize=auto;html=1;entryX=0;entryY=0.5;entryDx=0;entryDy=0;" edge="1" parent="1" source="_Ljdj8ycVx66a69qLUhx-10" target="_Ljdj8ycVx66a69qLUhx-12">
          <mxGeometry relative="1" as="geometry" />
        </mxCell>
        <mxCell id="_Ljdj8ycVx66a69qLUhx-10" value="&lt;div&gt;Проєктування&lt;/div&gt;" style="whiteSpace=wrap;html=1;rounded=1;" vertex="1" parent="1">
          <mxGeometry x="127.5" y="360" width="115" height="50" as="geometry" />
        </mxCell>
        <mxCell id="_Ljdj8ycVx66a69qLUhx-15" value="" style="edgeStyle=orthogonalEdgeStyle;rounded=0;orthogonalLoop=1;jettySize=auto;html=1;" edge="1" parent="1" source="_Ljdj8ycVx66a69qLUhx-12" target="_Ljdj8ycVx66a69qLUhx-14">
          <mxGeometry relative="1" as="geometry" />
        </mxCell>
        <mxCell id="_Ljdj8ycVx66a69qLUhx-12" value="Проєктування UI застосунку" style="whiteSpace=wrap;html=1;rounded=1;arcSize=20;" vertex="1" parent="1">
          <mxGeometry x="220" y="470" width="160" height="50" as="geometry" />
        </mxCell>
        <mxCell id="_Ljdj8ycVx66a69qLUhx-17" value="" style="edgeStyle=orthogonalEdgeStyle;rounded=0;orthogonalLoop=1;jettySize=auto;html=1;" edge="1" parent="1" source="_Ljdj8ycVx66a69qLUhx-14" target="_Ljdj8ycVx66a69qLUhx-16">
          <mxGeometry relative="1" as="geometry" />
        </mxCell>
        <mxCell id="_Ljdj8ycVx66a69qLUhx-14" value="Проєктування UX застосунку" style="whiteSpace=wrap;html=1;rounded=1;arcSize=20;" vertex="1" parent="1">
          <mxGeometry x="220" y="540" width="160" height="50" as="geometry" />
        </mxCell>
        <mxCell id="_Ljdj8ycVx66a69qLUhx-19" value="" style="edgeStyle=orthogonalEdgeStyle;rounded=0;orthogonalLoop=1;jettySize=auto;html=1;" edge="1" parent="1" source="_Ljdj8ycVx66a69qLUhx-16" target="_Ljdj8ycVx66a69qLUhx-18">
          <mxGeometry relative="1" as="geometry" />
        </mxCell>
        <mxCell id="_Ljdj8ycVx66a69qLUhx-16" value="&lt;div&gt;Проєктування баз данних&lt;/div&gt;" style="whiteSpace=wrap;html=1;rounded=1;arcSize=20;" vertex="1" parent="1">
          <mxGeometry x="220" y="610" width="160" height="40" as="geometry" />
        </mxCell>
        <mxCell id="_Ljdj8ycVx66a69qLUhx-21" value="" style="edgeStyle=orthogonalEdgeStyle;rounded=0;orthogonalLoop=1;jettySize=auto;html=1;" edge="1" parent="1" source="_Ljdj8ycVx66a69qLUhx-18" target="_Ljdj8ycVx66a69qLUhx-20">
          <mxGeometry relative="1" as="geometry" />
        </mxCell>
        <mxCell id="_Ljdj8ycVx66a69qLUhx-18" value="&lt;div&gt;Проєктування алгоритму обробки даних&lt;/div&gt;" style="whiteSpace=wrap;html=1;rounded=1;arcSize=20;" vertex="1" parent="1">
          <mxGeometry x="220" y="670" width="160" height="50" as="geometry" />
        </mxCell>
        <mxCell id="_Ljdj8ycVx66a69qLUhx-23" value="" style="edgeStyle=orthogonalEdgeStyle;rounded=0;orthogonalLoop=1;jettySize=auto;html=1;" edge="1" parent="1" source="_Ljdj8ycVx66a69qLUhx-20" target="_Ljdj8ycVx66a69qLUhx-22">
          <mxGeometry relative="1" as="geometry" />
        </mxCell>
        <mxCell id="_Ljdj8ycVx66a69qLUhx-20" value="Проєктування системи безпеки та інформаційної безпеки" style="whiteSpace=wrap;html=1;rounded=1;arcSize=20;" vertex="1" parent="1">
          <mxGeometry x="220" y="740" width="160" height="60" as="geometry" />
        </mxCell>
        <mxCell id="_Ljdj8ycVx66a69qLUhx-49" style="edgeStyle=orthogonalEdgeStyle;rounded=0;orthogonalLoop=1;jettySize=auto;html=1;entryX=0;entryY=0.5;entryDx=0;entryDy=0;exitX=0.5;exitY=1;exitDx=0;exitDy=0;" edge="1" parent="1" source="_Ljdj8ycVx66a69qLUhx-22" target="_Ljdj8ycVx66a69qLUhx-25">
          <mxGeometry relative="1" as="geometry" />
        </mxCell>
        <mxCell id="_Ljdj8ycVx66a69qLUhx-22" value="Розробка" style="whiteSpace=wrap;html=1;rounded=1;arcSize=20;" vertex="1" parent="1">
          <mxGeometry x="240" y="820" width="120" height="50" as="geometry" />
        </mxCell>
        <mxCell id="_Ljdj8ycVx66a69qLUhx-24" value="" style="edgeStyle=orthogonalEdgeStyle;rounded=0;orthogonalLoop=1;jettySize=auto;html=1;" edge="1" source="_Ljdj8ycVx66a69qLUhx-25" target="_Ljdj8ycVx66a69qLUhx-27" parent="1">
          <mxGeometry relative="1" as="geometry" />
        </mxCell>
        <mxCell id="_Ljdj8ycVx66a69qLUhx-25" value="Розробка UI застосунку" style="whiteSpace=wrap;html=1;rounded=1;arcSize=20;" vertex="1" parent="1">
          <mxGeometry x="400" y="930" width="160" height="50" as="geometry" />
        </mxCell>
        <mxCell id="_Ljdj8ycVx66a69qLUhx-26" value="" style="edgeStyle=orthogonalEdgeStyle;rounded=0;orthogonalLoop=1;jettySize=auto;html=1;" edge="1" source="_Ljdj8ycVx66a69qLUhx-27" target="_Ljdj8ycVx66a69qLUhx-29" parent="1">
          <mxGeometry relative="1" as="geometry" />
        </mxCell>
        <mxCell id="_Ljdj8ycVx66a69qLUhx-27" value="Розробка UX застосунку" style="whiteSpace=wrap;html=1;rounded=1;arcSize=20;" vertex="1" parent="1">
          <mxGeometry x="400" y="1020" width="160" height="50" as="geometry" />
        </mxCell>
        <mxCell id="_Ljdj8ycVx66a69qLUhx-28" value="" style="edgeStyle=orthogonalEdgeStyle;rounded=0;orthogonalLoop=1;jettySize=auto;html=1;" edge="1" source="_Ljdj8ycVx66a69qLUhx-29" target="_Ljdj8ycVx66a69qLUhx-31" parent="1">
          <mxGeometry relative="1" as="geometry" />
        </mxCell>
        <mxCell id="_Ljdj8ycVx66a69qLUhx-29" value="&lt;div&gt;Розробка баз данних&lt;/div&gt;" style="whiteSpace=wrap;html=1;rounded=1;arcSize=20;" vertex="1" parent="1">
          <mxGeometry x="400" y="1100" width="160" height="40" as="geometry" />
        </mxCell>
        <mxCell id="_Ljdj8ycVx66a69qLUhx-30" value="" style="edgeStyle=orthogonalEdgeStyle;rounded=0;orthogonalLoop=1;jettySize=auto;html=1;" edge="1" source="_Ljdj8ycVx66a69qLUhx-31" target="_Ljdj8ycVx66a69qLUhx-33" parent="1">
          <mxGeometry relative="1" as="geometry" />
        </mxCell>
        <mxCell id="_Ljdj8ycVx66a69qLUhx-31" value="&lt;div&gt;Розробка алгоритму обробки даних&lt;/div&gt;" style="whiteSpace=wrap;html=1;rounded=1;arcSize=20;" vertex="1" parent="1">
          <mxGeometry x="400" y="1160" width="160" height="50" as="geometry" />
        </mxCell>
        <mxCell id="_Ljdj8ycVx66a69qLUhx-32" value="" style="edgeStyle=orthogonalEdgeStyle;rounded=0;orthogonalLoop=1;jettySize=auto;html=1;" edge="1" source="_Ljdj8ycVx66a69qLUhx-33" target="_Ljdj8ycVx66a69qLUhx-34" parent="1">
          <mxGeometry relative="1" as="geometry" />
        </mxCell>
        <mxCell id="_Ljdj8ycVx66a69qLUhx-33" value="Розробка системи безпеки та інформаційної безпеки" style="whiteSpace=wrap;html=1;rounded=1;arcSize=20;" vertex="1" parent="1">
          <mxGeometry x="400" y="1230" width="160" height="50" as="geometry" />
        </mxCell>
        <mxCell id="_Ljdj8ycVx66a69qLUhx-51" style="edgeStyle=orthogonalEdgeStyle;rounded=0;orthogonalLoop=1;jettySize=auto;html=1;entryX=0;entryY=0.5;entryDx=0;entryDy=0;exitX=0.5;exitY=1;exitDx=0;exitDy=0;" edge="1" parent="1" source="_Ljdj8ycVx66a69qLUhx-34" target="_Ljdj8ycVx66a69qLUhx-36">
          <mxGeometry relative="1" as="geometry" />
        </mxCell>
        <mxCell id="_Ljdj8ycVx66a69qLUhx-34" value="Тестування" style="whiteSpace=wrap;html=1;rounded=1;arcSize=20;" vertex="1" parent="1">
          <mxGeometry x="420" y="1300" width="120" height="50" as="geometry" />
        </mxCell>
        <mxCell id="_Ljdj8ycVx66a69qLUhx-35" value="" style="edgeStyle=orthogonalEdgeStyle;rounded=0;orthogonalLoop=1;jettySize=auto;html=1;" edge="1" source="_Ljdj8ycVx66a69qLUhx-36" target="_Ljdj8ycVx66a69qLUhx-38" parent="1">
          <mxGeometry relative="1" as="geometry" />
        </mxCell>
        <mxCell id="_Ljdj8ycVx66a69qLUhx-36" value="Тестування UI застосунку" style="whiteSpace=wrap;html=1;rounded=1;arcSize=20;" vertex="1" parent="1">
          <mxGeometry x="580" y="1410" width="160" height="50" as="geometry" />
        </mxCell>
        <mxCell id="_Ljdj8ycVx66a69qLUhx-37" value="" style="edgeStyle=orthogonalEdgeStyle;rounded=0;orthogonalLoop=1;jettySize=auto;html=1;" edge="1" source="_Ljdj8ycVx66a69qLUhx-38" target="_Ljdj8ycVx66a69qLUhx-40" parent="1">
          <mxGeometry relative="1" as="geometry" />
        </mxCell>
        <mxCell id="_Ljdj8ycVx66a69qLUhx-38" value="Тестування UX застосунку" style="whiteSpace=wrap;html=1;rounded=1;arcSize=20;" vertex="1" parent="1">
          <mxGeometry x="580" y="1480" width="160" height="50" as="geometry" />
        </mxCell>
        <mxCell id="_Ljdj8ycVx66a69qLUhx-39" value="" style="edgeStyle=orthogonalEdgeStyle;rounded=0;orthogonalLoop=1;jettySize=auto;html=1;" edge="1" source="_Ljdj8ycVx66a69qLUhx-40" target="_Ljdj8ycVx66a69qLUhx-42" parent="1">
          <mxGeometry relative="1" as="geometry" />
        </mxCell>
        <mxCell id="_Ljdj8ycVx66a69qLUhx-40" value="&lt;div&gt;Тестування баз данних&lt;/div&gt;" style="whiteSpace=wrap;html=1;rounded=1;arcSize=20;" vertex="1" parent="1">
          <mxGeometry x="580" y="1550" width="160" height="40" as="geometry" />
        </mxCell>
        <mxCell id="_Ljdj8ycVx66a69qLUhx-41" value="" style="edgeStyle=orthogonalEdgeStyle;rounded=0;orthogonalLoop=1;jettySize=auto;html=1;" edge="1" source="_Ljdj8ycVx66a69qLUhx-42" target="_Ljdj8ycVx66a69qLUhx-44" parent="1">
          <mxGeometry relative="1" as="geometry" />
        </mxCell>
        <mxCell id="_Ljdj8ycVx66a69qLUhx-42" value="&lt;div&gt;Тестування алгоритму обробки даних&lt;/div&gt;" style="whiteSpace=wrap;html=1;rounded=1;arcSize=20;" vertex="1" parent="1">
          <mxGeometry x="580" y="1610" width="160" height="50" as="geometry" />
        </mxCell>
        <mxCell id="_Ljdj8ycVx66a69qLUhx-44" value="Тестування системи безпеки та інформаційної безпеки" style="whiteSpace=wrap;html=1;rounded=1;arcSize=20;" vertex="1" parent="1">
          <mxGeometry x="580" y="1680" width="160" height="60" as="geometry" />
        </mxCell>
      </root>
    </mxGraphModel>
  </diagram>
</mxfile>
